<svg width="53" height="51" viewBox="0 0 53 51" fill="none" xmlns="http://www.w3.org/2000/svg">
<g clip-path="url(#clip0_51_46)">
<path d="M37.6619 20.1743C37.6619 19.8344 37.6464 19.4986 37.6167 19.1656C35.5249 18.4045 33.3101 17.7973 31.0036 17.4364C31.4513 18.1947 31.7084 19.0775 31.7084 20.0191C31.7084 22.3751 30.101 24.3589 27.9131 24.9563C28.0515 20.4164 28.1899 16.7536 28.3156 16.0961C28.7323 13.9038 28.8411 14.5823 31.1081 13.8352C32.0996 13.5078 33.142 13.298 34.1731 13.1469C35.8497 12.9034 37.5362 12.7509 39.3866 12.5467C39.0645 12.4935 38.9007 12.4543 38.7312 12.4347C36.7721 12.2053 34.8073 12.0192 32.8581 11.7366C31.0233 11.468 29.3114 10.8188 28.3156 9.17772C27.7549 8.25434 27.3184 7.19525 27.1207 6.14036C26.7337 4.09493 26.5557 2.01453 26.2972 0.0124703C26.3269 -0.0211072 26.2718 0.0180665 26.2619 0.0712309C26.2266 0.257306 26.2026 0.447578 26.1772 0.632255C25.8791 2.76163 25.6856 4.90919 25.2548 7.00918C24.759 9.44075 23.1517 10.9937 20.6813 11.5407C19.1332 11.8821 17.5512 12.0528 15.9792 12.2683C15.1161 12.3858 14.2432 12.4249 13.376 12.5019C15.3195 12.7999 17.2546 13.0098 19.184 13.2826C21.2773 13.5806 23.2166 14.1962 24.4271 16.0947C24.6856 16.499 24.9102 20.2429 25.1023 24.9382C22.9454 24.3212 21.3677 22.3527 21.3677 20.0191C21.3677 19.0551 21.6361 18.1541 22.1036 17.3846C19.6742 17.7372 17.3408 18.3668 15.1444 19.1656C15.1147 19.4986 15.0992 19.8344 15.0992 20.1743C15.0992 25.9944 19.5922 30.7736 25.3297 31.2983C25.5514 38.2041 25.7096 44.9839 25.7986 45.6177C26.0472 47.3847 26.6249 50.9999 26.6249 50.9999C26.6249 50.9999 27.2323 45.9507 27.2718 45.6177C27.3806 44.6971 27.5487 38.0376 27.7337 31.2661C33.3257 30.603 37.6619 25.8923 37.6619 20.1743Z" fill="white"/>
<path d="M52.6977 30.5314L51.4491 29.0205L50.0437 27.6284C49.6242 27.2143 49.2654 26.7442 48.9744 26.2335L48.0507 24.6064C48.0352 24.5952 47.9518 24.5393 47.9349 24.5281C45.7159 23.0255 43.0915 21.4823 40.1663 20.1924C40.1677 20.2903 40.1691 20.3869 40.1691 20.4848C40.1691 27.1793 35.306 32.749 28.8892 33.9158V44.2758C36.4035 43.6281 43.1042 40.1962 47.9052 36.9489C47.9123 36.9447 47.949 36.9196 47.9829 36.8958C47.9885 36.8916 47.9942 36.8874 48.0013 36.8832C48.021 36.8692 48.038 36.858 48.0422 36.8552L48.9405 35.0742C49.2527 34.4558 49.6637 33.8906 50.1581 33.4023L52.6793 30.905C52.7825 30.8029 52.7895 30.6406 52.6977 30.5301V30.5314Z" fill="white"/>
<path d="M12.5951 20.4848C12.5951 20.3869 12.5951 20.2889 12.598 20.1924C9.67557 21.4809 7.05403 23.0227 4.83646 24.5225C4.82092 24.5337 4.72629 24.5966 4.71075 24.6078L3.787 26.2349C3.49744 26.7456 3.13726 27.2157 2.71776 27.6298L1.31235 29.0219L0.0637331 30.5328C-0.0280773 30.6434 -0.0196025 30.8057 0.0820952 30.9078L1.31094 32.125L2.60194 33.4037C3.0963 33.8934 3.50733 34.4572 3.81948 35.077L4.7164 36.8538C4.7164 36.8538 4.74041 36.8706 4.75877 36.8832C4.75877 36.8832 4.75877 36.8832 4.76019 36.8832C4.78278 36.8986 4.8068 36.914 4.81386 36.9196C9.61766 40.1752 16.3368 43.6253 23.8737 44.2744V33.9144C17.4554 32.7476 12.5923 27.1779 12.5923 20.482L12.5951 20.4848Z" fill="white"/>
<path d="M44.6479 43.3203V50.8752H45.7073V44.1919H46.1734V50.8752H47.1904V43.9429L46.5972 43.3203H44.6479Z" fill="white"/>
<path d="M48.1088 43.3203L47.4731 43.8715V50.366L48.1088 50.8752H49.3376L50.0156 50.366V47.3944H49.041V50.026H48.4477V44.1276H49.041V46.8431H50.0156V43.8715L49.3376 43.3203H48.1088Z" fill="white"/>
<path d="M52.3702 43.3066H50.4365V50.8854H52.3702L53.0002 50.2614V43.932L52.3702 43.308V43.3066ZM51.9493 50.0529H51.445V44.1405H51.9493V50.0529Z" fill="white"/>
</g>
<defs>
<clipPath id="clip0_51_46">
<rect width="53" height="51" fill="white"/>
</clipPath>
</defs>
</svg>
